<svg id="Layer_1" data-name="Layer 1" xmlns="http://www.w3.org/2000/svg" viewBox="0 0 214.31 197.21"><defs><style>.cls-1{fill:none;stroke:#000;stroke-miterlimit:10;}</style></defs><polyline class="cls-1" points="125.34 17.21 150.07 46.83 168.01 46.83 178.62 41.67 187.31 50.1 191.12 50.1 196.28 45.48 201.72 52.81 199.54 59.07 194.38 74.56 193.22 77.86 194.92 83.31 193.9 86.37 186.75 87.39 178.57 78.71 170.23 73.94 164.78 77.69 158.99 82.28 146.56 94.37 136.86 103.4 131.35 108.79 134.31 113.78 142.65 112.76 148.78 108.05 156.44 111.57 154.21 120.8 142.07 129.28 132.09 127.45 129.37 122.81 119.09 119.86 114.9 123.49 100.77 132.85 88 140.34 70.8 147.49 52.24 152.43 43.22 154.81 30.79 161.96 34.71 164.18 43.56 161.79 49.01 157.2 52.76 158.22 46.8 167.75 39.3 179.16 30.79 188.35 26.2 190.4 21.43 189.54 22.45 182.74 28.24 177.97 28.75 173.37 25.17 170.31 19.9 163.84 16.83 158.73 11.04 157.03 14.96 154.13 19.9 155.84 25 159.24 30.11 158.73 38.28 154.47 49.52 147.32 62.46 138.98 76.93 137.11 82.21 136.09 90.6 138.81"/></svg>